#N canvas 136 106 503 597 10;
#X obj 1 1 cnv 4 500 35 empty empty example_object 8 12 0 16 -44926
-1 0;
#X text 24 19 Here is a short description of the object in a nutshell
, f 75;
#X obj 1 37 cnv 4 500 4 empty empty Example: 8 12 0 12 -228992 -1 0
;
#X obj 1 273 cnv 4 500 4 empty empty Description: 8 12 0 12 -228992
-1 0;
#X text 24 291 More detailed description of the object., f 75;
#X text 24 304 Each line will be displayed in the patch as a separate
comment., f 75;
#X obj 1 322 cnv 4 500 4 empty empty Arguments: 8 12 0 12 -228992 -1
0;
#X text 24 340 First argument, f 75;
#X text 24 353 Second argument, f 75;
#X obj 1 371 cnv 4 500 4 empty empty Inlets: 8 12 0 12 -228992 -1 0
;
#X text 24 389 Inlet 0 <bang> post bang, f 75;
#X text 24 402 Inlet 0 <float> post float, f 75;
#X text 24 415 Inlet 0 <symbol> post symbol, f 75;
#X text 24 428 Inlet 0 <list> post list, f 75;
#X text 24 441 Inlet 0 <anything> post anything, f 75;
#X text 24 454 Inlet 0 message <test> post test, f 75;
#X text 24 467 Inlet 1 <float> set parametr x, f 75;
#X obj 1 485 cnv 4 500 4 empty empty Outlets: 8 12 0 12 -228992 -1
0;
#X text 24 503 Outlet 0 <float> result calculation, f 75;
#X text 24 516 Outlet 1 <symbol> something, f 75;
#X obj 1 534 cnv 4 500 61 empty empty Info: 8 12 0 12 -257472 -1 0
;
#X text 24 552 Author: Nioelumijke, f 75;
#X text 24 565 License: GPL v3, f 75;
#X text 24 578 My site: github.com/nioniu, f 75;
#X obj 156 152 example;
