#N canvas 50 50 507 512 10;
#X obj 2 9 cnv 4 502 33 bot_frame empty empty 16 16 0 10 1 1 0;
#X obj 3 10 cnv 4 500 31 bot_back empty empty 16 16 0 10 0 0 0;
#X text 25 24  Here is a short description of the object in a nutshell, f 77;
#X obj 16 1 cnv 4 102 18 top_frame empty empty 16 16 0 10 1 1 0;
#X obj 17 2 cnv 4 100 16 top_back empty objectname 8 8 1 14 0 22 0;
#X obj 2 54 cnv 4 502 110 bot_frame empty empty 16 16 0 10 1 1 0;
#X obj 3 55 cnv 4 500 108 bot_back empty empty 16 16 0 10 0 0 0;
#X obj 16 46 cnv 4 102 18 top_frame empty empty 16 16 0 10 1 1 0;
#X obj 17 47 cnv 4 100 16 top_back empty examples: 8 8 1 14 0 22 0;
#X obj 2 176 cnv 4 502 44 bot_frame empty empty 16 16 0 10 1 1 0;
#X obj 3 177 cnv 4 500 42 bot_back empty empty 16 16 0 10 0 0 0;
#X text 109 191                More detailed description of the object., f 63;
#X text 43 202     Each line will be displayed in the patch as a separate comment., f 74;
#X obj 16 168 cnv 4 102 18 top_frame empty empty 16 16 0 10 1 1 0;
#X obj 17 169 cnv 4 100 16 top_back empty description: 8 8 1 14 0 22 0;
#X obj 2 232 cnv 4 502 44 bot_frame empty empty 16 16 0 10 1 1 0;
#X obj 3 233 cnv 4 500 42 bot_back empty empty 16 16 0 10 0 0 0;
#X text 25 247  First argument, f 77;
#X text 25 258  Second argument, f 77;
#X obj 16 224 cnv 4 102 18 top_frame empty empty 16 16 0 10 1 1 0;
#X obj 17 225 cnv 4 100 16 top_back empty argument: 8 8 1 14 0 22 0;
#X obj 2 288 cnv 4 502 110 bot_frame empty empty 16 16 0 10 1 1 0;
#X obj 3 289 cnv 4 500 108 bot_back empty empty 16 16 0 10 0 0 0;
#X text 25 303  Inlet 0, f 77;
#X text 91 303     <bang>, f 66;
#X text 181 303          post bang, f 51;
#X text 25 314  Inlet 0, f 77;
#X text 91 314     <float>, f 66;
#X text 181 314         post float, f 51;
#X text 25 325  Inlet 0, f 77;
#X text 91 325     <symbol>, f 66;
#X text 181 325        post symbol, f 51;
#X text 25 336  Inlet 0, f 77;
#X text 91 336     <list>, f 66;
#X text 181 336          post list, f 51;
#X text 25 347  Inlet 0, f 77;
#X text 91 347     <anything>, f 66;
#X text 181 347      post anything, f 51;
#X text 25 358  Inlet 0, f 77;
#X text 91 358     message <test> post test, f 66;
#X text 25 380  Inlet 1, f 77;
#X text 91 380     <float>, f 66;
#X text 181 380         set parametr x, f 51;
#X obj 16 280 cnv 4 102 18 top_frame empty empty 16 16 0 10 1 1 0;
#X obj 17 281 cnv 4 100 16 top_back empty inlet: 8 8 1 14 0 22 0;
#X obj 2 410 cnv 4 502 44 bot_frame empty empty 16 16 0 10 1 1 0;
#X obj 3 411 cnv 4 500 42 bot_back empty empty 16 16 0 10 0 0 0;
#X text 25 425  Outlet 0, f 77;
#X text 91 425    <float>, f 66;
#X text 181 425         result calculation, f 51;
#X text 25 436  Outlet 1, f 77;
#X text 91 436    <symbol>, f 66;
#X text 181 436        something, f 51;
#X obj 16 402 cnv 4 102 18 top_frame empty empty 16 16 0 10 1 1 0;
#X obj 17 403 cnv 4 100 16 top_back empty outlet: 8 8 1 14 0 22 0;
#X obj 2 466 cnv 4 502 44 bot_frame empty empty 16 16 0 10 1 1 0;
#X obj 3 467 cnv 4 500 42 bot_back empty empty 16 16 0 10 0 0 0;
#X text 25 481  Author: Nioelumijke, f 77;
#X text 25 492  License: GPL v3, f 77;
#X obj 16 458 cnv 4 102 18 top_frame empty empty 16 16 0 10 1 1 0;
#X obj 17 459 cnv 4 100 16 top_back empty info: 8 8 1 14 0 22 0;
